<mxfile host="app.diagrams.net" modified="2023-12-18T04:52:28.488Z" agent="Mozilla/5.0 (Macintosh; Intel Mac OS X 10_15_7) AppleWebKit/537.36 (KHTML, like Gecko) Chrome/120.0.0.0 Safari/537.36" version="22.1.11" etag="yIZ1FGGYYGxZp6BdYK8g" type="github">
  <diagram name="PÃ¡gina-1" id="gdHnfJaYXEg7ubQgH4HS">
    <mxGraphModel>
      <root>
        <mxCell id="0" />
        <mxCell id="1" parent="0" />
      </root>
    </mxGraphModel>
  </diagram>
</mxfile>
